<?xml version="1.0" encoding="iso-8859-1"?>
<!-- Uploaded to: SVG Repo, www.svgrepo.com, Generator: SVG Repo Mixer Tools -->
<svg height="800px" width="800px" version="1.1" id="Layer_1" xmlns="http://www.w3.org/2000/svg" xmlns:xlink="http://www.w3.org/1999/xlink" 
	 viewBox="0 0 512 512" xml:space="preserve">
<path style="fill:#80D0E1;" d="M510.45,52.774L378.654,328.693H133.347L1.55,52.774C-3.421,42.36,4.169,30.332,15.696,30.332H158.58
	c6.038,0,11.542,3.466,14.146,8.923L256,213.583l83.274-174.328c2.603-5.458,8.108-8.923,14.146-8.923h142.884
	C507.831,30.332,515.421,42.36,510.45,52.774z"/>
<path style="fill:#FFC72D;" d="M378.654,328.693c-12.521-56.429-62.901-98.298-122.653-98.298
	c-80.248,0-140.108,74.32-122.653,152.984c12.521,56.431,62.901,98.298,122.653,98.298
	C336.248,481.676,396.108,407.357,378.654,328.693z M256,405.114v-0.016c-27.099,0-49.071-21.971-49.071-49.071
	c0-27.099,21.971-49.071,49.071-49.071v0.016c27.099,0,49.071,21.971,49.071,49.071C305.071,383.143,283.1,405.114,256,405.114z"/>
<path style="fill:#FFBE0D;" d="M256,481.676v-76.562c27.099,0,49.071-21.971,49.071-49.071c0-27.099-21.971-49.071-49.071-49.071
	v-76.578c19.211,0,38.422,4.391,55.971,13.142c33.42,16.655,58.386,47.769,66.682,85.156
	C396.108,407.357,336.248,481.676,256,481.676z"/>
<path style="fill:#FFE49C;" d="M256,306.979c-0.002,0-0.003,0-0.005,0c-27.085,0.003-49.06,21.956-49.06,49.064
	c0,27.098,21.963,49.063,49.06,49.065c0.002,0,0.003,0,0.005,0c27.099,0,49.064-21.965,49.064-49.065
	C305.065,328.937,283.093,306.979,256,306.979z"/>
<path style="fill:#FFC72D;" d="M256,306.979c-0.002,0-0.003,0-0.005,0v98.131c0.002,0,0.003,0,0.005,0
	c27.099,0,49.064-21.965,49.064-49.065C305.065,328.937,283.093,306.979,256,306.979z"/>
<path style="fill:#48AEE2;" d="M353.425,30.324c-6.042,0-11.547,3.471-14.15,8.923L256,213.586l-0.005-0.011l-83.27-174.327
	c-2.605-5.451-8.109-8.923-14.15-8.923H98.197l101.836,213.205c17.566-8.757,36.768-13.129,55.962-13.129
	c19.214,0,38.421,4.38,55.973,13.129L413.804,30.324C413.804,30.324,353.425,30.324,353.425,30.324z"/>
<path style="fill:#3494C7;" d="M510.448,52.766L378.655,328.69c-8.302-37.383-33.266-68.498-66.689-85.16L413.803,30.326h82.495
	C507.832,30.324,515.421,42.357,510.448,52.766z"/>
</svg>